<?xml version="1.0" encoding="utf-8"?>
<!-- Generator: Adobe Illustrator 26.2.1, SVG Export Plug-In . SVG Version: 6.00 Build 0)  -->
<svg version="1.1" id="Layer_1" xmlns="http://www.w3.org/2000/svg" xmlns:xlink="http://www.w3.org/1999/xlink" x="0px" y="0px"
	 viewBox="0 0 512 512" style="enable-background:new 0 0 512 512;" xml:space="preserve">
<g>
	<path d="M404.2,398.9c-12,11.2-25.2,20.8-39.5,29c-14.4,8.2-29.7,14.6-45.6,19c-16,4.5-32.8,6.9-50.1,6.9
		c-26.3,0-51.8-4.3-75.8-12.7c-23.5-8.2-44.4-20.8-61.9-37.1c-17.5-16-35.9-42.7-46.7-67.9c-9.4-22-13.4-45.6-13.4-82.2
		c0-25.9,6-54.6,16.3-78.9c10-23.3,23.8-43.9,41.2-61.1c17.2-17,38.1-30.9,62.3-41.2c21.6-9.1,47.2-13.6,78.2-13.6
		c24.5,0,48,3.9,69.5,11.7c20.9,7.5,39.3,18.4,54.6,32.3c14.1,12.9,22.8,28.5,32.1,49.6c8.1,18,11.2,34,11.2,58.9
		c0,20.2-3.6,39.6-10.6,57.3c-7,17.3-12.4,28-23,41.2c-11.2,13.4-17.3,20.8-29.2,27.6c-13.7,8.1-24.2,11.8-32.6,11.8
		c-6.7,0-8.8-1.5-8.9-1.7c-1-0.9-1.9-2.1-2.4-5c-0.5-3.9,0-9.3,1.5-15.3c1.7-6.9,4.3-13.4,8.1-22.5L408,120.8h-45.1l-7.9,20.9
		c-6.2-7.2-13.6-13.4-21.8-18.2c-19.6-11.3-36-16-57-16c-24.4,0-47.2,6.3-67.4,18.9c-19.7,12.2-36.7,28-50.3,46.8
		c-13.4,18.5-16.8,28.5-23,46.8l-1,3.1c-7.4,22-11.2,43.6-11.2,64.3c0,13.9,2.6,27.5,7.5,40c5,12.7,11.8,23.7,20.4,32.6
		c8.4,9.3,18.9,16.6,31.2,22.3c12,5.5,25.2,8.4,39.5,8.4c15.8,0,30.2-2.6,47-8.4c9.3-3.3,17.5-7.9,25.4-14.6
		c1.7,2.9,3.9,5.5,6.5,7.9c10,10,23.2,15.1,38.9,15.1s32.8-5.3,53.2-16.8c18.2-10.3,28.8-22.1,41.9-37.7
		c14.8-17.7,22.1-32.8,30-52.8c8.9-22.1,13.4-46.3,13.4-71.7c0-31.9-4.3-53.7-15.3-77.7c-11.7-25.4-23.5-45.8-42.9-63
		C401,53.8,378,40.6,351.9,31.4c-25.7-9.1-53.4-13.6-82.4-13.6c-35.3,0-65.5,5.3-92.1,16.1c-28.8,11.7-54.4,28.1-76,48.7
		c-21.6,20.9-38.9,46-51.3,74.1C37.2,186,30,221.3,30,254.1c0,44.1,5.5,75,18.4,103.1c14.2,30.9,37.4,62.6,58.9,81.2
		c22.5,19.6,48.2,34,76.5,42.9c28,8.9,57,13.6,85.8,13.6c19.7,0,40-2.7,60.2-8.1c20.4-5.7,39.5-13.4,56.6-23.2
		c17.5-9.8,34.3-22,49.8-36.4c15.4-14.4,32.9-36.9,39.1-47.9c3.3-6,5.3-10.5,6.3-13.2h-47.4C425.1,377.3,415.4,388.4,404.2,398.9z
		 M283.8,317.4c-7.7,9.8-12.7,15.6-18.7,19.6c-6.7,4.6-12,7.5-18.9,9.1H246c-6.9,1.7-14.2,2.7-21.8,2.7c-8.8,0-16.6-1.5-23.7-4.6
		c-7.2-3.1-13.2-7.2-18.5-12.9c-5.1-5.5-9.4-12-12.5-19.6c-2.9-7.5-4.5-16-4.5-24.9c0-15.4,2.9-32.3,8.8-49.8
		c0.7-2.1,1.4-4.3,1.9-5.8c4.6-14.2,7-18.7,15.6-32.9c7.9-13,20.2-25.1,37.4-36.5c13.6-9.1,28.7-13.7,45.1-13.7
		c6.7,0,13.7,0.9,21.1,2.4c5.3,1.2,8.1,2.7,13.4,5.8l0.3,0.2c0.7,0.3,1.4,0.7,2.2,1.2l0.5,0.3c6,3.4,11.3,7.9,16,13.4
		c3.6,4.3,6.5,9.8,8.8,16.6L301.6,285C296.3,298,290.3,309,283.8,317.4z"/>
</g>
</svg>
