<svg viewBox="0 0 38 24" version="1.1" xmlns="http://www.w3.org/2000/svg" xmlns:xlink="http://www.w3.org/1999/xlink"><defs><linearGradient x1="48.743%" y1="76.002%" x2="52.403%" y2="-0.583%" id="linearGradient-1"><stop stop-color="#504678" offset="0%"/><stop stop-color="#504678" stop-opacity="0.616" offset="30.2%"/><stop stop-color="#504678" stop-opacity="0.283" offset="60.8%"/><stop stop-color="#504678" stop-opacity="0.076" offset="85.2%"/><stop stop-color="#504678" stop-opacity="0" offset="100%"/></linearGradient><linearGradient x1="13.702%" y1="66.341%" x2="57.382%" y2="41.255%" id="linearGradient-2"><stop stop-color="#504678" offset="0%"/><stop stop-color="#504678" stop-opacity="0.872" offset="17.9%"/><stop stop-color="#504678" stop-opacity="0.536" offset="52.6%"/><stop stop-color="#504678" stop-opacity="0" offset="100%"/></linearGradient><linearGradient x1="47.724%" y1="34.971%" x2="45.261%" y2="18.375%" id="linearGradient-3"><stop stop-color="#504678" offset="0%"/><stop stop-color="#504678" stop-opacity="0.332" offset="64.3%"/><stop stop-color="#504678" stop-opacity="0" offset="100%"/></linearGradient></defs><g id="Page-1" stroke="none" stroke-width="1" fill="none" fill-rule="evenodd"><g id="mobilepay" fill-rule="nonzero"><path d="M35,0 L3,0 C1.3,0 0,1.3 0,3 L0,21 C0,22.7 1.4,24 3,24 L35,24 C36.7,24 38,22.7 38,21 L38,3 C38,1.3 36.6,0 35,0 Z" id="Shape" fill="#5A78FF"/><path d="M16.7908462,20.9945217 C16.1737414,20.9945577 15.6173293,20.6239473 15.3808923,20.0553913 L10.1169077,7.38026087 C9.79485645,6.60470901 10.1640392,5.71558758 10.9415385,5.39426087 L16.4550308,3.1166087 C16.8283774,2.96228627 17.2479008,2.96225157 17.6212732,3.11651223 C17.9946455,3.27077289 18.2912683,3.56668699 18.4458615,3.93913043 L23.7098462,16.6147826 C24.0313746,17.3901183 23.6622815,18.2786735 22.8852154,18.6 L17.3717231,20.8786957 C17.1876102,20.9550051 16.9902216,20.9943641 16.7908462,20.9945217 Z M17.0382615,3.8186087 C16.9458644,3.81876009 16.8544069,3.83711119 16.7691385,3.8726087 L11.2553846,6.15026087 C11.0830327,6.22146918 10.9461072,6.35806297 10.8747395,6.52998365 C10.8033719,6.70190431 10.8034102,6.89506406 10.8748462,7.06695652 L16.1388308,19.7428696 C16.2878359,20.1005224 16.6989345,20.2704225 17.0578769,20.1226957 L22.5713692,17.8434783 C22.7437211,17.7722699 22.8806466,17.6356762 22.9520143,17.4637555 C23.023382,17.2918348 23.0233436,17.0986751 22.9519077,16.9267826 L17.6879231,4.25217391 C17.5789613,3.99010168 17.322703,3.81908234 17.0382615,3.8186087 Z" id="Shape" fill="#FFFFFF"/><rect id="Rectangle-path" fill="url(#linearGradient-1)" opacity="0.5" style="mix-blend-mode: multiply;" transform="translate(19.456567, 7.440994) rotate(-22.500000) translate(-19.456567, -7.440994) " x="19.0463439" y="4.72481965" width="1" height="5.43234783"/><rect id="Rectangle-path" fill="url(#linearGradient-1)" opacity="0.5" style="mix-blend-mode: multiply;" transform="translate(21.801018, 13.087876) rotate(157.500000) translate(-21.801018, -13.087876) " x="21.3907946" y="10.0132673" width="1" height="6.14921739"/><path d="M21.6444769,12.3193043 C20.0676615,12.9714783 18.7510769,13.8704348 17.8890462,14.954087 L15.6664923,9.6 C16.6802955,8.42515701 17.970719,7.51980537 19.4219231,6.96521739 C20.9987385,6.31304348 22.5917692,5.9973913 23.9452308,6.18130435 L26.1683077,11.5351304 C24.6185211,11.4187119 23.0640159,11.6881743 21.6444769,12.3193043 Z" id="Shape" fill="#FFFFFF"/><g id="Group" opacity="0.25" style="mix-blend-mode: multiply;" transform="translate(15.492308, 5.869565)"><path d="M6.15216923,6.44973913 C4.57535385,7.10191304 3.25876923,8.00086957 2.39673846,9.08452174 L0.174184615,3.73043478 C1.18798783,2.5555918 2.47841134,1.65024015 3.92961538,1.09565217 C5.50643077,0.443478261 7.09946154,0.127826087 8.45292308,0.31173913 L10.676,5.66556522 C9.12621341,5.54914667 7.5717082,5.8186091 6.15216923,6.44973913 Z" id="Shape" fill="url(#linearGradient-2)" opacity="0.9"/><path d="M6.15216923,6.44973913 C4.57535385,7.10191304 3.25876923,8.00086957 2.39673846,9.08452174 L0.174184615,3.73043478 C1.18798783,2.5555918 2.47841134,1.65024015 3.92961538,1.09565217 C5.50643077,0.443478261 7.09946154,0.127826087 8.45292308,0.31173913 L10.676,5.66556522 C9.12621341,5.54914667 7.5717082,5.8186091 6.15216923,6.44973913 Z" id="Shape" fill="url(#linearGradient-3)" opacity="0.7"/></g><path d="M22.3686769,13.9515652 C20.6618769,13.9515652 19.0994462,14.2805217 17.8885231,14.952 L17.8885231,9.53843478 C19.2758442,8.84015197 20.8152864,8.49638888 22.3686769,8.538 C24.0754769,8.538 25.6685077,8.85365217 26.8485692,9.53973913 L26.8485692,14.9533043 C25.4615026,14.2544471 23.9221072,13.9102262 22.3686769,13.9515652 Z" id="Shape" fill="#FFFFFF"/></g></g></svg>